<?xml version="1.0" encoding="UTF-8" ?>
<score-partwise version="4.0">
  <part-list>
    <score-part id="P1">
      <part-name>Music</part-name>
    </score-part>
  </part-list>
  <part id="P1">
    <!-- M1: four quarters, one slur (default below placement). -->
    <measure number="1">
      <attributes>
        <divisions>2</divisions>
        <time>
          <beats>4</beats>
          <beat-type>4</beat-type>
        </time>
        <staves>1</staves>
        <clef>
          <sign>G</sign>
          <line>2</line>
        </clef>
      </attributes>
      <note>
        <pitch><step>C</step><octave>5</octave></pitch>
        <duration>2</duration>
        <type>quarter</type>
        <notations><slur number="1" type="start" /></notations>
      </note>
      <note>
        <pitch><step>D</step><octave>5</octave></pitch>
        <duration>2</duration>
        <type>quarter</type>
      </note>
      <note>
        <pitch><step>E</step><octave>5</octave></pitch>
        <duration>2</duration>
        <type>quarter</type>
      </note>
      <note>
        <pitch><step>F</step><octave>5</octave></pitch>
        <duration>2</duration>
        <type>quarter</type>
        <notations><slur number="1" type="stop" /></notations>
      </note>
    </measure>
    <!-- M2: four quarters, one slur with explicit placement above. -->
    <measure number="2">
      <note>
        <pitch><step>G</step><octave>5</octave></pitch>
        <duration>2</duration>
        <type>quarter</type>
        <notations><slur number="1" type="start" placement="above" /></notations>
      </note>
      <note>
        <pitch><step>A</step><octave>5</octave></pitch>
        <duration>2</duration>
        <type>quarter</type>
      </note>
      <note>
        <pitch><step>B</step><octave>5</octave></pitch>
        <duration>2</duration>
        <type>quarter</type>
      </note>
      <note>
        <pitch><step>A</step><octave>5</octave></pitch>
        <duration>2</duration>
        <type>quarter</type>
        <notations><slur number="1" type="stop" placement="above" /></notations>
      </note>
    </measure>
    <!-- M3: four quarters carrying two separate two-note slurs. -->
    <measure number="3">
      <note>
        <pitch><step>C</step><octave>5</octave></pitch>
        <duration>2</duration>
        <type>quarter</type>
        <notations><slur number="1" type="start" /></notations>
      </note>
      <note>
        <pitch><step>D</step><octave>5</octave></pitch>
        <duration>2</duration>
        <type>quarter</type>
        <notations><slur number="1" type="stop" /></notations>
      </note>
      <note>
        <pitch><step>E</step><octave>5</octave></pitch>
        <duration>2</duration>
        <type>quarter</type>
        <notations><slur number="2" type="start" /></notations>
      </note>
      <note>
        <pitch><step>D</step><octave>5</octave></pitch>
        <duration>2</duration>
        <type>quarter</type>
        <notations><slur number="2" type="stop" /></notations>
      </note>
    </measure>
    <!-- M4: eight beamed eighths under a single slur (slur over a beamed run). -->
    <measure number="4">
      <note>
        <pitch><step>C</step><octave>5</octave></pitch>
        <duration>1</duration>
        <type>eighth</type>
        <beam number="1">begin</beam>
        <notations><slur number="1" type="start" /></notations>
      </note>
      <note>
        <pitch><step>D</step><octave>5</octave></pitch>
        <duration>1</duration>
        <type>eighth</type>
        <beam number="1">continue</beam>
      </note>
      <note>
        <pitch><step>E</step><octave>5</octave></pitch>
        <duration>1</duration>
        <type>eighth</type>
        <beam number="1">continue</beam>
      </note>
      <note>
        <pitch><step>F</step><octave>5</octave></pitch>
        <duration>1</duration>
        <type>eighth</type>
        <beam number="1">end</beam>
      </note>
      <note>
        <pitch><step>G</step><octave>5</octave></pitch>
        <duration>1</duration>
        <type>eighth</type>
        <beam number="1">begin</beam>
      </note>
      <note>
        <pitch><step>F</step><octave>5</octave></pitch>
        <duration>1</duration>
        <type>eighth</type>
        <beam number="1">continue</beam>
      </note>
      <note>
        <pitch><step>E</step><octave>5</octave></pitch>
        <duration>1</duration>
        <type>eighth</type>
        <beam number="1">continue</beam>
      </note>
      <note>
        <pitch><step>D</step><octave>5</octave></pitch>
        <duration>1</duration>
        <type>eighth</type>
        <beam number="1">end</beam>
        <notations><slur number="1" type="stop" /></notations>
      </note>
    </measure>
    <!-- M5: two half notes slurred across a wide leap. -->
    <measure number="5">
      <note>
        <pitch><step>A</step><octave>5</octave></pitch>
        <duration>4</duration>
        <type>half</type>
        <notations><slur number="1" type="start" /></notations>
      </note>
      <note>
        <pitch><step>C</step><octave>4</octave></pitch>
        <duration>4</duration>
        <type>half</type>
        <notations><slur number="1" type="stop" /></notations>
      </note>
    </measure>
    <!-- M6: one slur over a descending line D5, C5, A4, G4 that crosses the middle
         line, so the first two notes are stem-down and the last two stem-up. -->
    <measure number="6">
      <note>
        <pitch><step>D</step><octave>5</octave></pitch>
        <duration>2</duration>
        <type>quarter</type>
        <notations><slur number="1" type="start" /></notations>
      </note>
      <note>
        <pitch><step>C</step><octave>5</octave></pitch>
        <duration>2</duration>
        <type>quarter</type>
      </note>
      <note>
        <pitch><step>A</step><octave>4</octave></pitch>
        <duration>2</duration>
        <type>quarter</type>
      </note>
      <note>
        <pitch><step>G</step><octave>4</octave></pitch>
        <duration>2</duration>
        <type>quarter</type>
        <notations><slur number="1" type="stop" /></notations>
      </note>
    </measure>
    <!-- M7: one slur over a zig-zag line C5, G4, D5, A4 straddling the middle line,
         so the stems alternate down-up-down-up under the slur. -->
    <measure number="7">
      <note>
        <pitch><step>C</step><octave>5</octave></pitch>
        <duration>2</duration>
        <type>quarter</type>
        <notations><slur number="1" type="start" /></notations>
      </note>
      <note>
        <pitch><step>G</step><octave>4</octave></pitch>
        <duration>2</duration>
        <type>quarter</type>
      </note>
      <note>
        <pitch><step>D</step><octave>5</octave></pitch>
        <duration>2</duration>
        <type>quarter</type>
      </note>
      <note>
        <pitch><step>A</step><octave>4</octave></pitch>
        <duration>2</duration>
        <type>quarter</type>
        <notations><slur number="1" type="stop" /></notations>
      </note>
    </measure>
    <!-- M8: one slur beneath an ascending low line E4, F4, G4, A4. All notes sit below
         the middle line so their stems point up, and the slur bows below the noteheads. -->
    <measure number="8">
      <note>
        <pitch><step>E</step><octave>4</octave></pitch>
        <duration>2</duration>
        <type>quarter</type>
        <notations><slur number="1" type="start" /></notations>
      </note>
      <note>
        <pitch><step>F</step><octave>4</octave></pitch>
        <duration>2</duration>
        <type>quarter</type>
      </note>
      <note>
        <pitch><step>G</step><octave>4</octave></pitch>
        <duration>2</duration>
        <type>quarter</type>
      </note>
      <note>
        <pitch><step>A</step><octave>4</octave></pitch>
        <duration>2</duration>
        <type>quarter</type>
        <notations><slur number="1" type="stop" /></notations>
      </note>
    </measure>
  </part>
</score-partwise>
